/* XPM */
static char *result[] = {
/* columns rows colors chars-per-pixel */
"16 16 56 1 ",
"  c black",
". c #0D0B07",
"X c #0D0C09",
"o c #2C220D",
"O c #32270F",
"+ c #272217",
"@ c #26221C",
"# c #322810",
"$ c #322911",
"% c #3E3011",
"& c #383025",
"* c #34312C",
"= c #383429",
"- c #3D362B",
"; c #3A372F",
": c #3B3933",
"> c #3C3B37",
", c #49370B",
"< c #403210",
"1 c #433619",
"2 c #463B23",
"3 c #735100",
"4 c #624910",
"5 c #5D5136",
"6 c #675325",
"7 c #6B5D3E",
"8 c #5C574D",
"9 c #786846",
"0 c #796947",
"q c #756450",
"w c #7A776F",
"e c #9D7513",
"r c #9B7F3A",
"t c #83724D",
"y c #85744D",
"u c #BC8500",
"i c #BA8505",
"p c #B59548",
"a c #A08B5D",
"s c #AE9765",
"d c #A79468",
"f c #A2967C",
"g c #D8B96F",
"h c #D6BA7C",
"j c #A8A191",
"k c #B3AFA1",
"l c #BDBCB9",
"z c #C8C3B5",
"x c #F2CEAC",
"c c #E5DABC",
"v c #ECDDB9",
"b c #CECFCF",
"n c #DEDFDF",
"m c #FAE9DF",
"M c #FEFFFF",
"N c None",
/* pixels */
"NhhhhhhhhhhhhhhN",
"hhhhhhhhhhhhhhhh",
"hhhhhhhhhhhhhhhh",
"hha 0ht  ahhhhhh",
"hhaq@7-x&ahhhhhh",
"hha4fjeu#ahhhhhh",
"hha6cgiuOah7yhhh",
"hhawkvpu$y5,%shh",
"hhs8nmMl2113.shh",
"hhhy*MMldr<oyhhh",
"hhhh nbbMz=9hhhh",
"hhhh w>X;:;ahhhh",
"hhhh   ++  ahhhh",
"hhhhhhhhhhhhhhhh",
"hhhhhhhhhhhhhhhh",
"NhhhhhhhhhhhhhhN"
};
