/* XPM */
static char *result[] = {
/* columns rows colors chars-per-pixel */
"32 32 82 1 ",
"  c black",
". c #0D0C09",
"X c #1B1811",
"o c #1C1A15",
"O c #211F19",
"+ c #31270E",
"@ c #32270F",
"# c #2D2616",
"$ c #332A13",
"% c #352E1F",
"& c #2B2923",
"* c #312F2E",
"= c #383025",
"- c #3A372F",
"; c #3B3933",
": c #4E3B0C",
"> c #563F03",
", c #433619",
"< c #463B23",
"1 c #61490F",
"2 c #705002",
"3 c #624A12",
"4 c #66501F",
"5 c #50452E",
"6 c #55482C",
"7 c #5F502C",
"8 c #564A35",
"9 c #584C35",
"0 c #594F39",
"q c #5D5136",
"w c #6B5D3E",
"e c #7C6732",
"r c #494746",
"t c #5B5953",
"y c #615C5E",
"u c #786846",
"i c #63615A",
"p c #756450",
"a c #6A6861",
"s c #7A776F",
"d c #7B7973",
"f c #8D6400",
"g c #8E6605",
"h c #A47400",
"j c #A37F2A",
"k c #85744D",
"l c #807F7C",
"z c #BC8500",
"x c #B2810C",
"c c #B6891F",
"v c #B8933B",
"b c #C69525",
"n c #C79B2F",
"m c #C99D33",
"M c #A78A46",
"N c #A58950",
"B c #A08B5D",
"V c #92866D",
"C c #948474",
"Z c #AE9765",
"A c #BBA36C",
"S c #FF997D",
"D c #D8B96F",
"F c #D6BA7C",
"G c #9B9A95",
"H c #B2A88F",
"J c #ADA591",
"K c #BDBCB9",
"L c #BEBFBF",
"P c #C1B597",
"I c #C2BCAD",
"U c #F2CEAC",
"Y c #EDE0BF",
"T c #CCCCCA",
"R c #CECFCF",
"E c #DEDFDF",
"W c #F2E8CF",
"Q c #E8E5DC",
"! c #F9EADF",
"~ c #FCFAF7",
"^ c #FEFFFF",
"/ c None",
/* pixels */
"///FFFFFFFFFFFFFFFFFFFFFFFFFF///",
"//FFFFFFFFFFFFFFFFFFFFFFFFFFFF//",
"/FFFFFFFFFFFFFFFFFFFFFFFFFFFFFF/",
"FFFFFFFFFFFFFFFFFFFFFFFFFFFFFFFF",
"FFFFFFFFFFFFFFFFFFFFFFFFFFFFFFFF",
"FFFFFFFFFFFFFFFFFFFFFFFFFFFFFFFF",
"FFFFFk%%kFFFFZ%%%%ZFFFFFFFFFFFFF",
"FFFFFw =8kFFB9==X BFFFFFFFFFFFFF",
"FFFFFw U=%FFw UUp BFFFFFFFFFFFFF",
"FFFFFw UC*  OyUUp BFFFFFFFFFFFFF",
"FFFFFw bNlsr7cbb4 BFFFFFFFFFFFFF",
"FFFFFw zMT^Vjzzz1 BFFFFFFFFFFFFF",
"FFFFFw zD^^zzzzz1 BFFFFFFFFFFFFF",
"FFFFFw YPI^zx2zz1 BFFF%  BFFFFFF",
"FFFFFw ^JJ^mv>zz1 BFAw,@@6BFFFFF",
"FFFFFw ^II^^Qezz3 uAB 1hf wFFFFF",
"FFFFFw ^^!S^^^^^s  wB 11  wFFFFF",
"FFFFFB0-G~!^^^^a<11,#1g1 5BFFFFF",
"FFFFFFB iR^^^^^;$zz+ ff: BFFFFFF",
"FFFFFFFF%-^^^^^^^^^nf  %FFFFFFFF",
"FFFFFFFF%-^^^^^^^^^WH 5ZFFFFFFFF",
"FFFFFFFF%-^dGEsK^^dKL wFFFFFFFFF",
"FFFFFFFF%-^ -L tLL sL wFFFFFFFFF",
"FFFFFFFF%-^ -L     sL wFFFFFFFFF",
"FFFFFFFF%.- .& %%  o& wFFFFFFFFF",
"FFFFFFFFq%%%%%%kk%%%%%kFFFFFFFFF",
"FFFFFFFFFFFFFFFFFFFFFFFFFFFFFFFF",
"FFFFFFFFFFFFFFFFFFFFFFFFFFFFFFFF",
"FFFFFFFFFFFFFFFFFFFFFFFFFFFFFFFF",
"/FFFFFFFFFFFFFFFFFFFFFFFFFFFFFF/",
"//FFFFFFFFFFFFFFFFFFFFFFFFFFFF//",
"///FFFFFFFFFFFFFFFFFFFFFFFFFF///"
};
