/* XPM */
static char *result[] = {
/* columns rows colors chars-per-pixel */
"64 64 95 2 ",
"   c black",
".  c #0D0B07",
"X  c #1A170F",
"o  c #1B1811",
"O  c #1C1A15",
"+  c #211E19",
"@  c #2C220D",
"#  c #342704",
"$  c #31260B",
"%  c #32270F",
"&  c #26231D",
"*  c #2F291D",
"=  c #322911",
"-  c #352E1F",
";  c #2A2823",
":  c #2B2923",
">  c #312C21",
",  c #372E20",
"<  c #383025",
"1  c #3A372F",
"2  c #3B3831",
"3  c #3B3933",
"4  c #33353D",
"5  c #563F03",
"6  c #403210",
"7  c #433619",
"8  c #61490F",
"9  c #55482C",
"0  c #4B4538",
"q  c #564F3D",
"w  c #594D3B",
"e  c #6B5D3E",
"r  c #6D5F3D",
"t  c #6C603F",
"y  c #7C6732",
"u  c #444752",
"i  c #5B5953",
"p  c #675D43",
"a  c #615C5E",
"s  c #786846",
"d  c #756450",
"f  c #736952",
"g  c #5B5F6E",
"h  c #7A776F",
"j  c #8D6400",
"k  c #996C00",
"l  c #986F0D",
"z  c #8C6811",
"x  c #826B34",
"c  c #9B7D38",
"v  c #A17B21",
"b  c #85744D",
"n  c #907E5E",
"m  c #817B7E",
"M  c #BC8500",
"N  c #B3871D",
"B  c #BC9026",
"V  c #C79B2F",
"C  c #A08B5D",
"Z  c #8D8672",
"A  c #AE9765",
"S  c #BBA36C",
"D  c #FF997D",
"F  c #D8B96F",
"G  c #C3AC74",
"H  c #D6BA7C",
"J  c #9B9A95",
"K  c #ADA591",
"L  c #BCBAB8",
"P  c #BDBCB9",
"I  c #BEBFBF",
"U  c #C0A68A",
"Y  c #D6B380",
"T  c #D6BE84",
"R  c #DCBE9E",
"E  c #E4BC81",
"W  c #FFB39E",
"Q  c #F2CEAC",
"!  c #FAD0BE",
"~  c #EDE0BF",
"^  c #CECFCF",
"/  c #DEDFDF",
"(  c #FBDCCF",
")  c #E0DCD0",
"_  c #F2E8CF",
"`  c #E5E3DD",
"'  c #E8E4DC",
"]  c #E8E5DC",
"[  c #F9EADF",
"{  c #F6F0DF",
"}  c #FAEFE7",
"|  c #F2F0EA",
" . c #F4F2EE",
".. c #FEFFFF",
"X. c None",
/* pixels */
"X.X.X.X.X.X.X.X.X.H H H H H H H H H H H H H H H H H H H H H H H H H H H H H H H H H H H H H H H H H H H H H H X.X.X.X.X.X.X.X.X.",
"X.X.X.X.X.X.H H H H H H H H H H H H H H H H H H H H H H H H H H H H H H H H H H H H H H H H H H H H H H H H H H H H X.X.X.X.X.X.",
"X.X.X.X.X.H H H H H H H H H H H H H H H H H H H H H H H H H H H H H H H H H H H H H H H H H H H H H H H H H H H H H H X.X.X.X.X.",
"X.X.X.X.H H H H H H H H H H H H H H H H H H H H H H H H H H H H H H H H H H H H H H H H H H H H H H H H H H H H H H H H X.X.X.X.",
"X.X.X.H H H H H H H H H H H H H H H H H H H H H H H H H H H H H H H H H H H H H H H H H H H H H H H H H H H H H H H H H H X.X.X.",
"X.X.H H H H H H H H H H H H H H H H H H H H H H H H H H H H H H H H H H H H H H H H H H H H H H H H H H H H H H H H H H H H X.X.",
"X.H H H H H H H H H H H H H H H H H H H H H H H H H H H H H H H H H H H H H H H H H H H H H H H H H H H H H H H H H H H H H H X.",
"X.H H H H H H H H H H H H H H H H H H H H H H H H H H H H H H H H H H H H H H H H H H H H H H H H H H H H H H H H H H H H H H X.",
"X.H H H H H H H H H H H H H H H H H H H H H H H H H H H H H H H H H H H H H H H H H H H H H H H H H H H H H H H H H H H H H H X.",
"H H H H H H H H H H H H H H H H H H H H H H H H H H H H H H H H H H H H H H H H H H H H H H H H H H H H H H H H H H H H H H H H ",
"H H H H H H H H H H H H H H H H H H H H H H H H H H H H H H H H H H H H H H H H H H H H H H H H H H H H H H H H H H H H H H H H ",
"H H H H H H H H H H H H H H H H H H H H H H H H H H H H H H H H H H H H H H H H H H H H H H H H H H H H H H H H H H H H H H H H ",
"H H H H H H H H H H H e e e e e b H H H H H H H H H H S e e e e e e e e S H H H H H H H H H H H H H H H H H H H H H H H H H H H ",
"H H H H H H H H H H H           - H H H H H H H H H H C                 C H H H H H H H H H H H H H H H H H H H H H H H H H H H ",
"H H H H H H H H H H H           - H H H H H H H H H H C                 C H H H H H H H H H H H H H H H H H H H H H H H H H H H ",
"H H H H H H H H H H H       d d w - - b H H H H H - - * d d d d d o     C H H H H H H H H H H H H H H H H H H H H H H H H H H H ",
"H H H H H H H H H H H       Q Q d     e H H H H H       Q Q Q Q Q <     C H H H H H H H H H H H H H H H H H H H H H H H H H H H ",
"H H H H H H H H H H H       Q Q d     e H H H H H       Q Q Q Q Q <     C H H H H H H H H H H H H H H H H H H H H H H H H H H H ",
"H H H H H H H H H H H       Q Q U u u +           4 u a Q Q Q Q Q <     C H H H H H H H H H H H H H H H H H H H H H H H H H H H ",
"H H H H H H H H H H H       Q Q R g g &           u g m Q Q Q Q Q <     C H H H H H H H H H H H H H H H H H H H H H H H H H H H ",
"H H H H H H H H H H H       E E Y g g ;           q f n E E E E E ,     C H H H H H H H H H H H H H H H H H H H H H H H H H H H ",
"H H H H H H H H H H H       M M N g g ` ....L g g M M M M M M M M %     C H H H H H H H H H H H H H H H H H H H H H H H H H H H ",
"H H H H H H H H H H H       M M N g g ` ....L g g M M M M M M M M %     C H H H H H H H H H H H H H H H H H H H H H H H H H H H ",
"H H H H H H H H H H H       M M B L L  .....G c c M M M M M M M M %     C H H H H H H H H H H H H H H H H H H H H H H H H H H H ",
"H H H H H H H H H H H       M M V ..........V M M M M M M M M M M %     C H H H H H H H H H H H H H H H H H H H H H H H H H H H ",
"H H H H H H H H H H H       M M V ..........V M M M M M M M M M M %     C H H H H H H H H H H H H H H H H H H H H H H H H H H H ",
"H H H H H H H H H H H       F F T K K | ....V M M l z l M M M M M %     C H H H H H H H b - - - - - A H H H H H H H H H H H H H ",
"H H H H H H H H H H H       ....) # # ) ....V M M 5 # 5 M M M M M %     C H H H H H H H e           C H H H H H H H H H H H H H ",
"H H H H H H H H H H H       ....) # # ) ....V M M 5 # 5 M M M M M %     C H H H H H H H e           C H H H H H H H H H H H H H ",
"H H H H H H H H H H H       ....) # # ) ...._ ~ ~ t # 5 M M M M M %     C H H H H e     @ j j j j j       H H H H H H H H H H H ",
"H H H H H H H H H H H       ....) # # ) ..........p # 5 M M M M M %     C H H H H e     % M M M M M       H H H H H H H H H H H ",
"H H H H H H H H H H H       ....] p p ' ..........Z p y M M M M M =     s C C H H e     % M M k j j       H H H H H H H H H H H ",
"H H H H H H H H H H H       ..........! D D [ ....................1           H H e     % M M %           H H H H H H H H H H H ",
"H H H H H H H H H H H       ..........! D D [ ....................1           H H e     % M M %           H H H H H H H H H H H ",
"H H H H H H H H H H H       I I ^ ....( W W } ............../ I I >           C C 9     $ M M %           H H H H H H H H H H H ",
"H H H H H H H H H H H H H C     1 ..........................h     8 M M M M j     % M M M M M %     C H H H H H H H H H H H H H ",
"H H H H H H H H H H H H H C     1 ..........................h     8 M M M M j     % M M M M M %     C H H H H H H H H H H H H H ",
"H H H H H H H H H H H H H A - - 0 h h P ....................J 1 1 x V V V V v % % 6 8 8 8 8 8 7 - - A H H H H H H H H H H H H H ",
"H H H H H H H H H H H H H H H H e     h ....................................~ M M 8           e H H H H H H H H H H H H H H H H ",
"H H H H H H H H H H H H H H H H e     h ....................................~ M M 8           e H H H H H H H H H H H H H H H H ",
"H H H H H H H H H H H H H H H H e     h ....................................{ F F r     X e e C H H H H H H H H H H H H H H H H ",
"H H H H H H H H H H H H H H H H e     h ..........................................h     - H H H H H H H H H H H H H H H H H H H ",
"H H H H H H H H H H H H H H H H e     h ..........................................h     - H H H H H H H H H H H H H H H H H H H ",
"H H H H H H H H H H H H H H H H e     h ....3     I ..I     3 ..........      ....h     - H H H H H H H H H H H H H H H H H H H ",
"H H H H H H H H H H H H H H H H e     h ....1     I ..I     1 ..........      ....h     - H H H H H H H H H H H H H H H H H H H ",
"H H H H H H H H H H H H H H H H e     h ....1     I ..I     : I I I I I       ....h     - H H H H H H H H H H H H H H H H H H H ",
"H H H H H H H H H H H H H H H H e     h ....1     I ..I                       ....h     - H H H H H H H H H H H H H H H H H H H ",
"H H H H H H H H H H H H H H H H e     h ....1     I ..I                       ....h     - H H H H H H H H H H H H H H H H H H H ",
"H H H H H H H H H H H H H H H H e     2 h h O     i h i     . - - .           h h 2     - H H H H H H H H H H H H H H H H H H H ",
"H H H H H H H H H H H H H H H H e                           - H H -                     - H H H H H H H H H H H H H H H H H H H ",
"H H H H H H H H H H H H H H H H e                           - H H -                     - H H H H H H H H H H H H H H H H H H H ",
"H H H H H H H H H H H H H H H H C e e e e e e e e e e e e e b H H b e e e e e e e e e e b H H H H H H H H H H H H H H H H H H H ",
"H H H H H H H H H H H H H H H H H H H H H H H H H H H H H H H H H H H H H H H H H H H H H H H H H H H H H H H H H H H H H H H H ",
"H H H H H H H H H H H H H H H H H H H H H H H H H H H H H H H H H H H H H H H H H H H H H H H H H H H H H H H H H H H H H H H H ",
"H H H H H H H H H H H H H H H H H H H H H H H H H H H H H H H H H H H H H H H H H H H H H H H H H H H H H H H H H H H H H H H H ",
"X.H H H H H H H H H H H H H H H H H H H H H H H H H H H H H H H H H H H H H H H H H H H H H H H H H H H H H H H H H H H H H H X.",
"X.H H H H H H H H H H H H H H H H H H H H H H H H H H H H H H H H H H H H H H H H H H H H H H H H H H H H H H H H H H H H H H X.",
"X.H H H H H H H H H H H H H H H H H H H H H H H H H H H H H H H H H H H H H H H H H H H H H H H H H H H H H H H H H H H H H H X.",
"X.X.H H H H H H H H H H H H H H H H H H H H H H H H H H H H H H H H H H H H H H H H H H H H H H H H H H H H H H H H H H H H X.X.",
"X.X.X.H H H H H H H H H H H H H H H H H H H H H H H H H H H H H H H H H H H H H H H H H H H H H H H H H H H H H H H H H H X.X.X.",
"X.X.X.X.H H H H H H H H H H H H H H H H H H H H H H H H H H H H H H H H H H H H H H H H H H H H H H H H H H H H H H H H X.X.X.X.",
"X.X.X.X.X.H H H H H H H H H H H H H H H H H H H H H H H H H H H H H H H H H H H H H H H H H H H H H H H H H H H H H H X.X.X.X.X.",
"X.X.X.X.X.X.H H H H H H H H H H H H H H H H H H H H H H H H H H H H H H H H H H H H H H H H H H H H H H H H H H H H X.X.X.X.X.X.",
"X.X.X.X.X.X.X.X.X.H H H H H H H H H H H H H H H H H H H H H H H H H H H H H H H H H H H H H H H H H H H H H H X.X.X.X.X.X.X.X.X."
};
